PathFileType	4	(X/Y/Z)	/Users/itak/Documents/Research/Walk-IL/dataset/trc/00241_00009.trc
DataRate	CameraRate	NumFrames	NumMarkers	Units	OrigDataRate	OrigDataStartFrame	OrigNumFrames
100.000000	100.000000	4	53	mm	100.000000	109	874
Frame#	Time	RPSI			LPSI			L3			STRN			T10			C7			CLAV			RBAK			LBAK			LSHO			LUPA			LAEL			LAOL			LWTS			LWPS			LFRA			LIFD			LHPS			LHTS			RSHO			RUPA			RAEL			RAOL			RWTS			RWPS			RFRA			RIFD			RHTS			RHPS			RBHD			LFHD			RFHD			LBHD			LHIP			RHIP			RASI			LASI			LKNE			LTHI			LANK			LTIP			LTOE			LMT1			LMT5			LHEE			RKNE			RTHI			RANK			RTIP			RTOE			RMT1			RMT5			RHEE			
		X1	Y1	Z1	X2	Y2	Z2	X3	Y3	Z3	X4	Y4	Z4	X5	Y5	Z5	X6	Y6	Z6	X7	Y7	Z7	X8	Y8	Z8	X9	Y9	Z9	X10	Y10	Z10	X11	Y11	Z11	X12	Y12	Z12	X13	Y13	Z13	X14	Y14	Z14	X15	Y15	Z15	X16	Y16	Z16	X17	Y17	Z17	X18	Y18	Z18	X19	Y19	Z19	X20	Y20	Z20	X21	Y21	Z21	X22	Y22	Z22	X23	Y23	Z23	X24	Y24	Z24	X25	Y25	Z25	X26	Y26	Z26	X27	Y27	Z27	X28	Y28	Z28	X29	Y29	Z29	X30	Y30	Z30	X31	Y31	Z31	X32	Y32	Z32	X33	Y33	Z33	X34	Y34	Z34	X35	Y35	Z35	X36	Y36	Z36	X37	Y37	Z37	X38	Y38	Z38	X39	Y39	Z39	X40	Y40	Z40	X41	Y41	Z41	X42	Y42	Z42	X43	Y43	Z43	X44	Y44	Z44	X45	Y45	Z45	X46	Y46	Z46	X47	Y47	Z47	X48	Y48	Z48	X49	Y49	Z49	X50	Y50	Z50	X51	Y51	Z51	X52	Y52	Z52	X53	Y53	Z53	

110	1.09	267.3381958007812	1044.505981445312	677.7432250976562	271.8584594726562	1054.39501953125	798.2939453125	274.2747497558594	1135.088256835938	753.022216796875	20.32918357849121	1308.874145507812	769.0582885742188	273.6982727050781	1261.107543945312	746.470703125	200.6562805175781	1519.994384765625	754.6351318359375	39.9091682434082	1428.126708984375	765.75048828125	278.1871643066406	1384.872436523438	674.7665405273438	230.4019927978516	1483.019409179688	863.831298828125	145.3257598876953	1481.437866210938	926.8106689453125	186.8953857421875	1364.980102539062	1004.236022949219	188.2917633056641	1155.91064453125	1036.871704101562	255.9366760253906	1141.49658203125	983.337158203125	95.42626953125	921.340087890625	990.6951293945312	128.8595123291016	904.67138671875	1066.773681640625	169.5005340576172	1048.330688476562	1054.106689453125	101.2042617797852	732.260498046875	999.6028442382812	110.7714538574219	816.4993896484375	1064.204711914062	63.01139450073242	821.0406494140625	1016.269287109375	132.1696166992188	1476.478271484375	589.3953247070312	149.0825958251953	1411.8720703125	521.045166015625	176.6613159179688	1130.706909179688	483.6906127929688	218.3123321533203	1125.985595703125	569.1715087890625	46.24802017211914	916.553955078125	541.3256225585938	93.70914459228516	901.0392456054688	473.2301025390625	149.9927215576172	1061.6533203125	474.3343811035156	28.9178638458252	722.551513671875	547.7495727539062	3.921547412872314	796.2156372070312	528.6293334960938	54.70869827270508	794.7807006835938	475.5230407714844	147.1815490722656	1673.633544921875	710.0095825195312	-58.23877334594727	1704.806640625	802.5223999023438	-57.0810661315918	1700.196044921875	702.22802734375	100.6735076904297	1682.371948242188	842.0015258789062	178.6486053466797	995.7633666992188	945.0887451171875	165.3960723876953	1001.226135253906	575.708740234375	70.53057098388672	1044.223388671875	617.9248046875	74.35517883300781	1033.63134765625	898.8273315429688	118.5307693481445	509.867919921875	923.96533203125	130.6111907958984	654.4301147460938	949.4523315429688	208.1820678710938	36.09238433837891	929.8145751953125	170.5886993408203	287.4982604980469	936.546142578125	-9.54521656036377	45.02512741088867	889.873291015625	55.0723762512207	39.04026412963867	841.968017578125	82.57540130615234	36.54202270507812	956.5774536132812	266.100341796875	43.63816833496094	873.5254516601562	111.9369964599609	510.5973815917969	644.9329833984375	99.89395904541016	773.60205078125	586.4266357421875	219.5160675048828	35.88682556152344	683.5457153320312	110.8922576904297	390.3139343261719	670.568359375	10.72850894927979	45.43702697753906	732.5321044921875	66.57980346679688	36.92983245849609	774.249267578125	108.5271682739258	39.40345764160156	662.9216918945312	283.9452819824219	32.19250106811523	738.7169799804688	
111	1.1	266.3934936523438	1044.282348632812	676.6859130859375	270.9279174804688	1054.248046875	797.2481079101562	273.3233032226562	1135.04248046875	751.948974609375	19.21651649475098	1308.616821289062	767.886474609375	272.6919250488281	1261.0419921875	745.3676147460938	199.3422393798828	1519.894287109375	753.489501953125	38.68375778198242	1427.927612304688	764.5700073242188	277.0744018554688	1384.82861328125	673.5952758789062	229.0812377929688	1482.973388671875	862.6859130859375	144.0152587890625	1481.376708984375	925.6889038085938	185.9107513427734	1365.057495117188	1003.071899414062	188.5344543457031	1156.158447265625	1035.948608398438	255.9363250732422	1141.906494140625	982.0838623046875	95.91622924804688	921.3067016601562	990.4515380859375	129.9807434082031	904.7695922851562	1066.383056640625	170.1861724853516	1048.535888671875	1053.3935546875	102.019889831543	732.2013549804688	999.5851440429688	112.1740341186523	816.548095703125	1064.058349609375	63.73190307617188	820.9163818359375	1016.10400390625	130.9735870361328	1476.343627929688	588.2432250976562	147.9317932128906	1411.772827148438	519.8849487304688	175.6491851806641	1130.61767578125	482.5604248046875	217.4323272705078	1125.974365234375	567.9908447265625	45.58644866943359	916.292724609375	540.517578125	92.92218780517578	900.8475341796875	472.2930297851562	149.0276947021484	1061.531372070312	473.2653198242188	28.4789981842041	722.288330078125	547.0201416015625	3.415918111801147	795.9132080078125	527.922607421875	54.0653076171875	794.5470581054688	474.6846008300781	145.5421752929688	1673.594482421875	708.900146484375	-60.06507110595703	1704.154174804688	801.1386108398438	-58.7630500793457	1699.523559570312	700.8601684570312	98.88380432128906	1682.181030273438	840.8323364257812	177.5361633300781	995.5872802734375	943.9630737304688	164.5577697753906	1001.053405761719	574.4968872070312	69.71993255615234	1044.070190429688	616.7691650390625	73.35081481933594	1033.506225585938	897.6812133789062	115.5750198364258	509.826416015625	923.2412109375	128.4721374511719	654.2879028320312	948.557861328125	208.1416015625	36.13470077514648	929.781982421875	169.0411529541016	287.5369262695312	936.0928955078125	-9.561480522155762	45.03933334350586	889.9246215820312	55.05321502685547	39.09812545776367	842.0077514648438	82.56066131591797	36.52658462524414	956.6137084960938	266.1055603027344	43.82663345336914	873.4365844726562	111.2761077880859	510.3594665527344	644.3650512695312	99.05341339111328	773.3893432617188	585.5321655273438	219.5528869628906	35.8172607421875	683.4852294921875	110.3899307250977	390.093505859375	670.143310546875	10.72016716003418	45.38071060180664	732.5326538085938	66.60414123535156	36.94484710693359	774.252197265625	108.543586730957	39.37044906616211	662.8690185546875	283.9853515625	32.21354675292969	738.6627807617188	
112	1.11	265.4220886230469	1044.076416015625	675.6361083984375	269.9686584472656	1054.096557617188	796.2092895507812	272.3168334960938	1134.983520507812	750.8812255859375	18.05345344543457	1308.332275390625	766.6957397460938	271.6442260742188	1260.957885742188	744.2587280273438	197.9667053222656	1519.775756835938	752.3287963867188	37.41426086425781	1427.6943359375	763.3776245117188	275.8878784179688	1384.764282226562	672.4209594726562	227.7101898193359	1482.907592773438	861.517822265625	142.6548004150391	1481.29541015625	924.5433349609375	184.9349975585938	1365.132934570312	1001.90185546875	188.8727569580078	1156.407592773438	1035.04296875	255.9781494140625	1142.328491210938	980.829833984375	96.44834136962891	921.3081665039062	990.2128295898438	131.1187591552734	904.8739624023438	1065.959716796875	170.9141235351562	1048.742309570312	1052.676635742188	102.6835403442383	732.1575927734375	999.4624633789062	113.5914840698242	816.5824584960938	1063.906860351562	64.300048828125	820.8074951171875	1015.833801269531	129.7173461914062	1476.19287109375	587.0775146484375	146.732666015625	1411.657348632812	518.7081909179688	174.5889739990234	1130.51025390625	481.4053039550781	216.4980316162109	1125.947631835938	566.7868041992188	44.93062973022461	915.979248046875	539.6817626953125	92.12106323242188	900.629150390625	471.3055725097656	148.0305786132812	1061.393798828125	472.163330078125	28.07132911682129	721.9686279296875	546.1967163085938	2.916203737258911	795.55615234375	527.15478515625	53.42228317260742	794.2811889648438	473.7891540527344	143.8513031005859	1673.528198242188	707.7682495117188	-61.92681503295898	1703.492065429688	799.6862182617188	-60.47903442382812	1698.834350585938	699.4427490234375	97.05245971679688	1681.968505859375	839.6260986328125	176.4111633300781	995.364013671875	942.8324584960938	163.7075347900391	1000.875183105469	573.29052734375	68.88224029541016	1043.891479492188	615.5953369140625	72.32167053222656	1033.338012695312	896.5150146484375	112.3052215576172	509.7666015625	922.5056762695312	126.1488723754883	654.109619140625	947.62353515625	208.1004028320312	36.19179916381836	929.7557983398438	167.3231811523438	287.5874938964844	935.655517578125	-9.579082489013672	45.05740737915039	889.9857788085938	55.02846527099609	39.18370819091797	842.0661010742188	82.54193878173828	36.5040397644043	956.6534423828125	266.1008605957031	44.06278610229492	873.3568115234375	110.6322250366211	510.1140747070312	643.7401123046875	98.22994232177734	773.1935424804688	584.5906982421875	219.5915679931641	35.73328018188477	683.4179077148438	109.9079055786133	389.8827514648438	669.6519165039062	10.71056270599365	45.31782913208008	732.5139770507812	66.61667633056641	36.98000335693359	774.2183227539062	108.5645446777344	39.32777404785156	662.7957763671875	284.0344543457031	32.2374267578125	738.6026000976562	
113	1.12	264.43115234375	1043.886596679688	674.5955200195312	268.9864196777344	1053.930297851562	795.1784057617188	271.2577514648438	1134.907836914062	749.8219604492188	16.83893966674805	1308.015869140625	765.4918823242188	270.5477905273438	1260.853881835938	743.1466064453125	196.5294342041016	1519.635498046875	751.1531982421875	36.09198379516602	1427.423583984375	762.175537109375	274.6259460449219	1384.676513671875	671.2449951171875	226.2872924804688	1482.818603515625	860.3282470703125	141.2417144775391	1481.186279296875	923.3756103515625	183.9643402099609	1365.19970703125	1000.730712890625	189.2754211425781	1156.649658203125	1034.158813476562	256.0532836914062	1142.755249023438	979.5951538085938	97.05064392089844	921.3206176757812	989.9664916992188	132.2595367431641	904.9741821289062	1065.505859375	171.6567993164062	1048.940551757812	1051.960205078125	103.2989807128906	732.1224365234375	999.2827758789062	115.0085372924805	816.6049194335938	1063.74267578125	64.81934356689453	820.70703125	1015.506774902344	128.3932952880859	1476.0166015625	585.8998413085938	145.4741516113281	1411.517211914062	517.5161743164062	173.4854125976562	1130.375366210938	480.227783203125	215.5089263916016	1125.895263671875	565.5623779296875	44.26362609863281	915.6145629882812	538.8012084960938	91.30503082275391	900.3776245117188	470.26806640625	147.0038757324219	1061.230102539062	471.0301208496094	27.67848777770996	721.5985717773438	545.2808227539062	2.40647292137146	795.145751953125	526.3165893554688	52.77248382568359	793.9752197265625	472.8365173339844	142.1125335693359	1673.424682617188	706.6154174804688	-63.82603454589844	1702.820922851562	798.1724853515625	-62.23077774047852	1698.132202148438	697.9815673828125	95.1763916015625	1681.728637695312	838.3870849609375	175.2918395996094	995.0830688476562	941.69775390625	162.8450317382812	1000.688537597656	572.10009765625	68.01850128173828	1043.67919921875	614.4103393554688	71.27164459228516	1033.1201171875	895.3351440429688	108.6983108520508	509.6826171875	921.7626342773438	123.6183929443359	653.8932495117188	946.6520385742188	208.0566711425781	36.27899932861328	929.7347412109375	165.4261169433594	287.6580810546875	935.235107421875	-9.596255302429199	45.07820129394531	890.0558471679688	54.99685287475586	39.29788208007812	842.1436157226562	82.51992034912109	36.4724235534668	956.6961059570312	266.0801086425781	44.36275100708008	873.2985229492188	110.0164260864258	509.8595581054688	643.052978515625	97.42412567138672	773.0095825195312	583.6028442382812	219.6349945068359	35.63420486450195	683.3439331054688	109.4592819213867	389.6763305664062	669.0929565429688	10.70010089874268	45.2481803894043	732.4764404296875	66.62473297119141	37.03488159179688	774.1488647460938	108.5894546508789	39.27475357055664	662.701904296875	284.0934753417969	32.26068115234375	738.5382080078125	
